# xmcd
#
# Track frame offsets:
#	183
#	3720
#	28788
#	68228
#	93728
#	129700
#	145923
#	166390
#	198488
#	239283
#	256783
#	269178
#	285320
#
# Disc length: 4152
#
# Revision: 1
# Processed by: cddbd v1.5.1PL0 Copyright (c) Steve Scherf et al.
# Submitted via: CDex 1.50
# Normalized: r0:TDELIM( - )
#
DISCID=c510360d
DTITLE=Sidney Bechet, Claude Luter et son Orchestre - Pleyel Concerts 1952
DYEAR=1952
DGENRE=Jazz
TTITLE0=Intro (American Rythm) - Bechet
TTITLE1=Muskrat Ramble - Kid Ory
TTITLE2=Sweet Georgia Brown - Pinkard
TTITLE3=Frankie and Johnny - Traditional
TTITLE4=I Found a New Baby - Palmer, Williams
TTITLE5=Summertime - G. GErshwin, D. Heyward
TTITLE6=High Society - Williams
TTITLE7=I Got Rythm - Gershwin
TTITLE8=Society Blues - Bechet
TTITLE9=Dippermouth Blues - Oliver
TTITLE10=September Song - Anderson, Weill
TTITLE11=Casey Jones - Traditional
TTITLE12=Saint Louis Blues - W.C. Handy
EXTD=YEAR: 1952
EXTT0=
EXTT1=
EXTT2=
EXTT3=
EXTT4=
EXTT5=
EXTT6=
EXTT7=
EXTT8=
EXTT9=
EXTT10=
EXTT11=
EXTT12=
PLAYORDER=
